<?xml version="1.0" encoding="utf-8"?>
<!-- Generator: Adobe Illustrator 16.0.4, SVG Export Plug-In . SVG Version: 6.00 Build 0)  -->
<!DOCTYPE svg PUBLIC "-//W3C//DTD SVG 1.1//EN" "http://www.w3.org/Graphics/SVG/1.1/DTD/svg11.dtd" [
	<!ENTITY ns_extend "http://ns.adobe.com/Extensibility/1.0/">
	<!ENTITY ns_ai "http://ns.adobe.com/AdobeIllustrator/10.0/">
	<!ENTITY ns_graphs "http://ns.adobe.com/Graphs/1.0/">
	<!ENTITY ns_vars "http://ns.adobe.com/Variables/1.0/">
	<!ENTITY ns_imrep "http://ns.adobe.com/ImageReplacement/1.0/">
	<!ENTITY ns_sfw "http://ns.adobe.com/SaveForWeb/1.0/">
	<!ENTITY ns_custom "http://ns.adobe.com/GenericCustomNamespace/1.0/">
	<!ENTITY ns_adobe_xpath "http://ns.adobe.com/XPath/1.0/">
]>
<svg version="1.1" id="Layer_1" xmlns:x="&ns_extend;" xmlns:i="&ns_ai;" xmlns:graph="&ns_graphs;"
	 xmlns="http://www.w3.org/2000/svg" xmlns:xlink="http://www.w3.org/1999/xlink" x="0px" y="0px" width="61.484px" height="33.6px"
	 viewBox="0 0 61.484 33.6" enable-background="new 0 0 61.484 33.6" xml:space="preserve">
<metadata>
	<sfw  xmlns="&ns_sfw;">
		<slices></slices>
		<sliceSourceBounds  width="1387.212" height="339.173" bottomLeftOrigin="true" y="-586" x="-147"></sliceSourceBounds>
	</sfw>
</metadata>
<g>

		<rect x="34.617" y="0.155" transform="matrix(0.0887 -0.9961 0.9961 0.0887 24.3947 55.088)" fill="#20c3c4" width="15.372" height="28.115"/>
	<g>
		<defs>
			<rect id="SVGID_21_" width="61.484" height="33.6"/>
		</defs>
		<clipPath id="SVGID_2_">
			<use xlink:href="#SVGID_21_"  overflow="visible"/>
		</clipPath>
		<path clip-path="url(#SVGID_2_)" fill="#20c3c4" d="M56.539,24.212l-30.018-2.679l1.547-17.322l30.017,2.677L56.539,24.212z
			 M16.158,0l-1.127,12.657c1.883,1.711,3.101,4.145,3.153,6.881c3.079,0.179,5.644,2.205,6.626,4.987l34.574,3.083l2.1-23.567
			L16.158,0z"/>
		<path clip-path="url(#SVGID_2_)" fill="#20c3c4" d="M18.129,20.442c-0.301,3.977-3.011,7.241-6.695,8.373
			c0.791,2.757,3.304,4.784,6.314,4.784c3.645,0,6.6-2.953,6.6-6.598C24.346,23.488,21.592,20.643,18.129,20.442"/>
		<path clip-path="url(#SVGID_2_)" fill="#20c3c4" d="M17.293,19.722c0,4.773-3.872,8.645-8.645,8.645
			C3.871,28.366,0,24.495,0,19.722c0-4.777,3.871-8.648,8.646-8.648C13.42,11.075,17.293,14.946,17.293,19.722"/>
	</g>
</g>
</svg>
