<?xml version="1.0" encoding="utf-8"?>
<!-- Generator: Adobe Illustrator 16.0.4, SVG Export Plug-In . SVG Version: 6.00 Build 0)  -->
<!DOCTYPE svg PUBLIC "-//W3C//DTD SVG 1.1//EN" "http://www.w3.org/Graphics/SVG/1.1/DTD/svg11.dtd" [
	<!ENTITY ns_extend "http://ns.adobe.com/Extensibility/1.0/">
	<!ENTITY ns_ai "http://ns.adobe.com/AdobeIllustrator/10.0/">
	<!ENTITY ns_graphs "http://ns.adobe.com/Graphs/1.0/">
	<!ENTITY ns_vars "http://ns.adobe.com/Variables/1.0/">
	<!ENTITY ns_imrep "http://ns.adobe.com/ImageReplacement/1.0/">
	<!ENTITY ns_sfw "http://ns.adobe.com/SaveForWeb/1.0/">
	<!ENTITY ns_custom "http://ns.adobe.com/GenericCustomNamespace/1.0/">
	<!ENTITY ns_adobe_xpath "http://ns.adobe.com/XPath/1.0/">
]>
<svg version="1.1" id="Layer_1" xmlns:x="&ns_extend;" xmlns:i="&ns_ai;" xmlns:graph="&ns_graphs;"
	 xmlns="http://www.w3.org/2000/svg" xmlns:xlink="http://www.w3.org/1999/xlink" x="0px" y="0px" width="43.117px" height="42px"
	 viewBox="0 0 43.117 42" enable-background="new 0 0 43.117 42" xml:space="preserve">
<metadata>
	<sfw  xmlns="&ns_sfw;">
		<slices></slices>
		<sliceSourceBounds  width="1387.212" height="339.173" bottomLeftOrigin="true" y="-586" x="-147"></sliceSourceBounds>
	</sfw>
</metadata>
<g>
	<g>
		<defs>
			<rect id="SVGID_19_" width="43.117" height="42"/>
		</defs>
		<clipPath id="SVGID_2_">
			<use xlink:href="#SVGID_19_"  overflow="visible"/>
		</clipPath>
		<path clip-path="url(#SVGID_2_)" fill="#00B3D7" d="M38.197,19.686c-1.236,0-2.237-1.002-2.237-2.238
			c0-1.234,1.001-2.236,2.237-2.236c1.233,0,2.236,1.002,2.236,2.236C40.434,18.684,39.431,19.686,38.197,19.686 M34.17,28.634
			c-4.475,0-5.369-3.579-5.369-3.579h10.736C39.537,25.055,38.644,28.634,34.17,28.634 M27.906,17.447
			c0-1.234,1.002-2.236,2.236-2.236c1.236,0,2.237,1.002,2.237,2.236c0,1.236-1.001,2.238-2.237,2.238
			C28.908,19.686,27.906,18.684,27.906,17.447 M41.328,8.947c-1.789,0-3.579,1.789-7.158,1.789s-5.369-1.789-7.159-1.789
			c-0.843,0-1.79,0.896-1.79,1.789v12.527c0,3.966,1.79,8.948,8.949,8.948c7.158,0,8.947-4.982,8.947-8.948V10.736
			C43.117,9.843,42.172,8.947,41.328,8.947"/>
		<path clip-path="url(#SVGID_2_)" fill="#00B3D7" d="M17.615,6.264c1.236,0,2.238,1.001,2.238,2.237
			c0,1.234-1.002,2.237-2.238,2.237c-1.234,0-2.236-1.003-2.236-2.237C15.379,7.265,16.381,6.264,17.615,6.264 M20.242,23.193
			c0.441,0.047,0.907,0.07,1.4,0.07c0.643,0,1.229-0.03,1.79-0.111v-5.256h-7.159c0,0,0.895-3.579,5.369-3.579
			c0.896,0,1.246,0.133,1.79,0.335v-3.913c0-1.642,0.653-3.012,1.789-3.579c1.79-0.896,2.511-0.534,3.579,0l1.789,0.894V1.791
			c0-0.896-0.945-1.79-1.789-1.79c-1.789,0-3.579,1.79-7.158,1.79s-5.369-1.79-7.158-1.79V0c-0.844,0-1.789,0.895-1.789,1.79v12.525
			c0,1.593,0.299,3.343,1.105,4.873c0.318,0.134,0.634,0.274,0.945,0.433C16.912,20.725,18.742,21.921,20.242,23.193"/>
		<path clip-path="url(#SVGID_2_)" fill="#00B3D7" d="M15.492,24.719c0.262,0,0.525,0.06,0.773,0.187
			c0.84,0.426,1.173,1.454,0.746,2.292c-0.301,0.592-0.9,0.934-1.521,0.934c-0.26,0-0.525-0.062-0.773-0.187
			c-0.838-0.429-1.172-1.455-0.746-2.295C14.273,25.058,14.871,24.719,15.492,24.719 M17.598,30.559
			c0.301-0.592,0.898-0.932,1.521-0.933c0.261,0,0.524,0.061,0.772,0.186c0.84,0.429,1.174,1.456,0.746,2.296
			c-0.301,0.591-0.899,0.931-1.521,0.931c-0.261,0-0.524-0.06-0.772-0.187C17.504,32.424,17.17,31.399,17.598,30.559 M12.148,24.72
			c-0.303,0.592-0.901,0.934-1.521,0.934c-0.262,0-0.525-0.06-0.773-0.187c-0.84-0.428-1.174-1.454-0.745-2.295
			c0.301-0.59,0.899-0.93,1.521-0.93c0.26,0,0.524,0.059,0.772,0.186C12.241,22.855,12.575,23.882,12.148,24.72 M10.688,36.611
			c-0.361,0.709-1.081,1.117-1.826,1.117c-0.312,0-0.63-0.07-0.928-0.223c-1.006-0.512-1.406-1.745-0.895-2.754
			c0.362-0.709,1.081-1.118,1.825-1.118c0.313,0,0.63,0.072,0.929,0.224C10.799,34.371,11.2,35.604,10.688,36.611 M6.034,26.201
			c-0.301,0.593-0.899,0.933-1.522,0.933c-0.26,0-0.523-0.06-0.771-0.187c-0.84-0.428-1.174-1.453-0.746-2.293
			c0.301-0.593,0.898-0.933,1.52-0.933c0.262,0,0.525,0.061,0.773,0.187C6.127,24.336,6.463,25.362,6.034,26.201 M8.735,19.45
			c-3.931,0-7.156,1.969-8.019,3.661c-1.238,2.432-0.951,4.876,1.48,6.113c2.432,1.238,3.339,2.466,2.41,4.29
			c-1.238,2.432-0.344,5.185,2.089,6.422C9.534,41.383,12.104,42,14.332,42c3.975,0,6.861-1.964,8.249-4.69
			c3.716-7.297-1.126-12.824-8.421-16.54C12.309,19.827,10.455,19.45,8.735,19.45"/>
	</g>
</g>
</svg>
