<?xml version="1.0" encoding="utf-8"?>
<!-- Generator: Adobe Illustrator 16.0.4, SVG Export Plug-In . SVG Version: 6.00 Build 0)  -->
<!DOCTYPE svg PUBLIC "-//W3C//DTD SVG 1.1//EN" "http://www.w3.org/Graphics/SVG/1.1/DTD/svg11.dtd" [
	<!ENTITY ns_extend "http://ns.adobe.com/Extensibility/1.0/">
	<!ENTITY ns_ai "http://ns.adobe.com/AdobeIllustrator/10.0/">
	<!ENTITY ns_graphs "http://ns.adobe.com/Graphs/1.0/">
	<!ENTITY ns_vars "http://ns.adobe.com/Variables/1.0/">
	<!ENTITY ns_imrep "http://ns.adobe.com/ImageReplacement/1.0/">
	<!ENTITY ns_sfw "http://ns.adobe.com/SaveForWeb/1.0/">
	<!ENTITY ns_custom "http://ns.adobe.com/GenericCustomNamespace/1.0/">
	<!ENTITY ns_adobe_xpath "http://ns.adobe.com/XPath/1.0/">
]>
<svg version="1.1" id="Layer_1" xmlns:x="&ns_extend;" xmlns:i="&ns_ai;" xmlns:graph="&ns_graphs;"
	 xmlns="http://www.w3.org/2000/svg" xmlns:xlink="http://www.w3.org/1999/xlink" x="0px" y="0px" width="48.759px" height="42px"
	 viewBox="0 0 48.759 42" enable-background="new 0 0 48.759 42" xml:space="preserve">
<metadata>
	<sfw  xmlns="&ns_sfw;">
		<slices></slices>
		<sliceSourceBounds  width="1387.212" height="339.173" bottomLeftOrigin="true" y="-586" x="-147"></sliceSourceBounds>
	</sfw>
</metadata>
<g>
	<g>
		<defs>
			<rect id="SVGID_3_" y="0" width="48.758" height="42"/>
		</defs>
		<clipPath id="SVGID_2_">
			<use xlink:href="#SVGID_3_"  overflow="visible"/>
		</clipPath>
		<path clip-path="url(#SVGID_2_)" fill="#00B3D7" d="M17.678,30.173c-0.076,0.266-0.354,0.418-0.619,0.343
			c-0.264-0.075-0.418-0.352-0.341-0.617l0.289-1.009l-2.267-0.648l-0.289,1.009c-0.078,0.265-0.354,0.419-0.617,0.342
			c-0.266-0.075-0.42-0.351-0.342-0.616l0.287-1.01l-1.615-0.461c-0.266-0.077-0.418-0.353-0.342-0.618
			c0.075-0.265,0.352-0.419,0.617-0.343l1.616,0.462l0.636-2.218c0.076-0.265,0.354-0.418,0.617-0.343
			c0.266,0.076,0.419,0.353,0.344,0.618l-0.638,2.218l2.267,0.648l0.106-0.368c0.076-0.264,0.353-0.419,0.617-0.342
			c0.266,0.075,0.419,0.352,0.343,0.617L17.678,30.173z M22.066,30.433l-9.88-10.73c-0.139-0.149-0.348-0.201-0.534-0.131
			c-0.191,0.065-0.322,0.239-0.332,0.44l-0.588,10.139c-0.013,0.237,0.143,0.446,0.361,0.509c0.035,0.011,0.072,0.018,0.109,0.018
			l10.467,0.595c0.201,0.012,0.392-0.101,0.48-0.285C22.236,30.801,22.203,30.583,22.066,30.433"/>
	</g>
	
		<rect x="25.284" y="14.773" transform="matrix(0.9614 0.2753 -0.2753 0.9614 5.4256 -6.6679)" fill="#00B3D7" width="2.359" height="2.437"/>
	
		<rect x="26.23" y="11.47" transform="matrix(-0.9614 -0.2752 0.2752 -0.9614 50.2699 32.4296)" fill="#00B3D7" width="2.36" height="2.437"/>
	<polygon fill="#00B3D7" points="26.986,18.448 24.719,17.799 24.046,20.14 26.314,20.788 	"/>
	
		<rect x="23.952" y="7.246" transform="matrix(-0.9615 -0.2747 0.2747 -0.9615 46.9696 23.5037)" fill="#00B3D7" width="2.357" height="2.435"/>
	
		<rect x="23.003" y="10.547" transform="matrix(-0.9614 -0.2752 0.2752 -0.9614 44.1924 29.7309)" fill="#00B3D7" width="2.357" height="2.437"/>
	
		<rect x="27.179" y="8.168" transform="matrix(0.9615 0.2747 -0.2747 0.9615 3.6685 -7.428)" fill="#00B3D7" width="2.357" height="2.435"/>
	
		<rect x="30.406" y="9.09" transform="matrix(0.9614 0.2753 -0.2753 0.9614 4.0589 -8.2976)" fill="#00B3D7" width="2.359" height="2.436"/>
	
		<rect x="29.46" y="12.393" transform="matrix(-0.9616 -0.2746 0.2746 -0.9616 56.363 35.1107)" fill="#00B3D7" width="2.358" height="2.437"/>
	
		<rect x="28.512" y="15.696" transform="matrix(-0.9615 -0.2749 0.2749 -0.9615 53.5885 41.3377)" fill="#00B3D7" width="2.358" height="2.435"/>
	
		<rect x="27.565" y="18.998" transform="matrix(0.9614 0.275 -0.275 0.9614 6.669 -7.1262)" fill="#00B3D7" width="2.358" height="2.435"/>
	
		<rect x="19.777" y="9.625" transform="matrix(0.9616 0.2746 -0.2746 0.9616 3.7823 -5.337)" fill="#00B3D7" width="2.358" height="2.436"/>
	
		<rect x="14.272" y="4.476" transform="matrix(-0.9614 -0.2752 0.2752 -0.9614 28.7373 15.4192)" fill="#00B3D7" width="2.357" height="2.436"/>
	
		<rect x="11.043" y="3.555" transform="matrix(-0.9615 -0.2748 0.2748 -0.9615 22.6637 12.7224)" fill="#00B3D7" width="2.359" height="2.437"/>
	<g>
		<defs>
			<rect id="SVGID_5_" y="0" width="48.758" height="42"/>
		</defs>
		<clipPath id="SVGID_4_">
			<use xlink:href="#SVGID_5_"  overflow="visible"/>
		</clipPath>
		<path clip-path="url(#SVGID_4_)" fill="#00B3D7" d="M39.354,36.119c-0.66-1.305-2.078-2.523-4.235-3.141
			c-2.315-0.66-4.03-0.64-4.979-0.533l8.676-30.249c0.633-0.112,2.408-0.302,5.007,0.44c3.272,0.938,4.229,3.16,3.861,4.439
			L39.354,36.119z M4.448,35.909L6.233,5.083l3.78,4.107l-1.117,0.996c-0.207,0.185-0.225,0.5-0.041,0.706
			c0.064,0.074,0.146,0.123,0.234,0.148c0.16,0.045,0.338,0.011,0.471-0.108l1.13-1.008l1.278,1.39l-1.123,1.003
			c-0.207,0.184-0.225,0.5-0.041,0.705c0.066,0.074,0.148,0.124,0.234,0.147c0.159,0.046,0.34,0.011,0.471-0.106l1.137-1.015
			l1.279,1.392l-1.129,1.007c-0.207,0.185-0.225,0.501-0.041,0.707c0.065,0.072,0.147,0.122,0.234,0.146
			c0.159,0.046,0.338,0.011,0.471-0.107l1.141-1.019l1.279,1.391l-1.135,1.013c-0.207,0.183-0.224,0.5-0.039,0.705
			c0.064,0.074,0.146,0.122,0.233,0.147c0.159,0.046,0.337,0.012,0.472-0.107l1.146-1.024l1.28,1.392l-1.142,1.017
			c-0.206,0.183-0.224,0.5-0.041,0.706c0.065,0.073,0.147,0.122,0.233,0.146c0.16,0.045,0.34,0.012,0.473-0.105l1.152-1.029
			l1.279,1.392l-1.146,1.021c-0.207,0.185-0.225,0.5-0.04,0.707c0.065,0.072,0.146,0.121,0.233,0.146
			c0.16,0.046,0.338,0.011,0.471-0.107l1.158-1.033l1.279,1.39l-1.152,1.027c-0.205,0.185-0.223,0.499-0.039,0.705
			c0.064,0.075,0.146,0.122,0.234,0.148c0.159,0.045,0.338,0.011,0.471-0.107l1.164-1.039l1.279,1.391l-1.156,1.031
			c-0.207,0.185-0.225,0.5-0.041,0.705c0.064,0.073,0.147,0.123,0.233,0.148c0.159,0.045,0.339,0.011,0.472-0.108l1.168-1.042
			l1.278,1.391l-1.161,1.035c-0.207,0.186-0.226,0.5-0.041,0.706c0.064,0.075,0.146,0.123,0.233,0.148
			c0.16,0.045,0.338,0.011,0.472-0.107l1.174-1.049l1.279,1.389l-1.168,1.044c-0.208,0.185-0.224,0.5-0.04,0.704
			c0.065,0.074,0.147,0.122,0.233,0.148c0.16,0.047,0.34,0.011,0.472-0.108l1.179-1.052l1.358,1.475l-0.692,2.414
			c-0.051,0.176-0.002,0.363,0.127,0.491c0.129,0.129,0.316,0.176,0.494,0.126c0.012-0.004,1.024-0.271,2.774-0.095l3.918,4.255
			L4.448,35.909z M3.596,30.57c-0.073,0.264-0.35,0.417-0.616,0.342c-0.265-0.076-0.418-0.354-0.343-0.619l0.545-1.896
			c0.076-0.265,0.353-0.419,0.617-0.344c0.266,0.076,0.418,0.353,0.343,0.618L3.596,30.57z M10.604,2.522
			c0.076-0.266,0.352-0.42,0.617-0.344l22.59,6.459c0.264,0.077,0.418,0.354,0.342,0.618l-5.04,17.573
			c-0.075,0.266-0.353,0.42-0.618,0.344c-0.265-0.077-0.418-0.353-0.343-0.618l1.114-3.883L27,22.024l-0.564,1.964
			c-0.077,0.265-0.352,0.419-0.617,0.343s-0.419-0.354-0.343-0.618l0.563-1.964l-2.748-0.785c-0.265-0.076-0.418-0.352-0.342-0.618
			l0.809-2.821l-2.267-0.648l-0.394,1.375c-0.077,0.265-0.354,0.419-0.619,0.343c-0.266-0.076-0.418-0.352-0.342-0.617l0.394-1.375
			l-2.746-0.785c-0.265-0.076-0.418-0.354-0.342-0.617l0.81-2.822l-2.269-0.649l-0.254,0.89c-0.076,0.265-0.353,0.42-0.618,0.344
			s-0.418-0.353-0.342-0.618l1.201-4.192l-2.266-0.648l-0.652,2.279c-0.076,0.265-0.354,0.42-0.618,0.344
			c-0.267-0.077-0.419-0.354-0.343-0.619l0.652-2.279l-2.648-0.757C10.06,6.467,10.026,6.47,9.992,6.461
			C9.728,6.385,9.573,6.109,9.649,5.842L10.604,2.522z M44.096,1.676c-3.584-1.024-5.731-0.41-5.822-0.384
			c-0.163,0.049-0.29,0.178-0.337,0.343l-1.72,5.991L9.615,0.019C9.351-0.056,9.074,0.097,8.998,0.364L7.633,5.126L6.17,3.538
			c-0.137-0.148-0.349-0.201-0.535-0.13c-0.19,0.065-0.319,0.241-0.332,0.44L4.621,15.623L0.02,31.666
			c-0.076,0.265,0.078,0.541,0.343,0.618l3.241,0.926l-0.182,3.142c-0.014,0.238,0.142,0.446,0.358,0.511
			c0.036,0.01,0.073,0.016,0.111,0.017l15.647,0.888l13.129,3.754c5.707,1.633,6.545-1.294,6.996-2.867l7.826-27.282l1.153-4.021
			C49.213,5.364,47.668,2.699,44.096,1.676"/>
	</g>
	
		<rect x="16.549" y="8.702" transform="matrix(-0.9616 -0.2746 0.2746 -0.9616 32.0518 24.329)" fill="#00B3D7" width="2.358" height="2.439"/>
	
		<rect x="17.498" y="5.4" transform="matrix(0.9615 0.2749 -0.2749 0.9615 2.5391 -4.88)" fill="#00B3D7" width="2.358" height="2.435"/>
	
		<rect x="20.724" y="6.322" transform="matrix(0.9615 0.2749 -0.2749 0.9615 2.9172 -5.7315)" fill="#00B3D7" width="2.358" height="2.435"/>
	
		<rect x="22.058" y="13.85" transform="matrix(0.9615 0.2748 -0.2748 0.9615 5.0347 -5.8048)" fill="#00B3D7" width="2.356" height="2.435"/>
	
		<rect x="18.831" y="12.929" transform="matrix(-0.9614 -0.275 0.275 -0.9614 35.3558 33.2509)" fill="#00B3D7" width="2.358" height="2.434"/>
</g>
</svg>
