<?xml version="1.0" encoding="utf-8"?>
<!-- Generator: Adobe Illustrator 16.0.4, SVG Export Plug-In . SVG Version: 6.00 Build 0)  -->
<!DOCTYPE svg PUBLIC "-//W3C//DTD SVG 1.1//EN" "http://www.w3.org/Graphics/SVG/1.1/DTD/svg11.dtd" [
	<!ENTITY ns_extend "http://ns.adobe.com/Extensibility/1.0/">
	<!ENTITY ns_ai "http://ns.adobe.com/AdobeIllustrator/10.0/">
	<!ENTITY ns_graphs "http://ns.adobe.com/Graphs/1.0/">
	<!ENTITY ns_vars "http://ns.adobe.com/Variables/1.0/">
	<!ENTITY ns_imrep "http://ns.adobe.com/ImageReplacement/1.0/">
	<!ENTITY ns_sfw "http://ns.adobe.com/SaveForWeb/1.0/">
	<!ENTITY ns_custom "http://ns.adobe.com/GenericCustomNamespace/1.0/">
	<!ENTITY ns_adobe_xpath "http://ns.adobe.com/XPath/1.0/">
]>
<svg version="1.1" id="Layer_1" xmlns:x="&ns_extend;" xmlns:i="&ns_ai;" xmlns:graph="&ns_graphs;"
	 xmlns="http://www.w3.org/2000/svg" xmlns:xlink="http://www.w3.org/1999/xlink" x="0px" y="0px" width="52.003px" height="42px"
	 viewBox="0 0 52.003 42" enable-background="new 0 0 52.003 42" xml:space="preserve">
<metadata>
	<sfw  xmlns="&ns_sfw;">
		<slices></slices>
		<sliceSourceBounds  width="1387.212" height="339.173" bottomLeftOrigin="true" y="-586" x="-147"></sliceSourceBounds>
	</sfw>
</metadata>
<g>
	<g>
		<defs>
			<rect id="SVGID_9_" width="52.003" height="42"/>
		</defs>
		<clipPath id="SVGID_2_">
			<use xlink:href="#SVGID_9_"  overflow="visible"/>
		</clipPath>
		<path clip-path="url(#SVGID_2_)" fill="#00B3D7" d="M31.613,22.795c0.054,0.278,0.145,0.505,0.264,0.692
			c0.113,0.806,0.624,1.209,1.531,1.209h17.074c1.002,0,1.521-0.528,1.521-1.582v-0.94c0-1.054-0.519-1.582-1.521-1.582H35.307
			l-3.699-19.3C31.438,0.43,30.984,0,30.25,0c-0.146,0-0.305,0.017-0.473,0.051l-0.908,0.185c-0.702,0.142-1.107,0.485-1.229,1.021
			c-0.053,0.138-0.098,0.287-0.127,0.459l-4.893,27.582l-1.413-7.316c-0.168-0.853-0.616-1.275-1.337-1.285
			c-0.189-0.068-0.412-0.103-0.665-0.103H1.557C0.518,20.594,0,21.121,0,22.175v0.942c0,1.053,0.518,1.581,1.557,1.581h16.059
			l2.947,15.265c0.031,0.153,0.074,0.289,0.123,0.413c-0.014,0.778,0.418,1.259,1.305,1.419l0.912,0.163
			c0.154,0.029,0.3,0.042,0.434,0.042c0.76,0,1.217-0.436,1.364-1.286l4.974-28.04L31.613,22.795z"/>
	</g>
</g>
</svg>
