<?xml version="1.0" encoding="utf-8"?>
<!-- Generator: Adobe Illustrator 16.0.4, SVG Export Plug-In . SVG Version: 6.00 Build 0)  -->
<!DOCTYPE svg PUBLIC "-//W3C//DTD SVG 1.1//EN" "http://www.w3.org/Graphics/SVG/1.1/DTD/svg11.dtd" [
	<!ENTITY ns_extend "http://ns.adobe.com/Extensibility/1.0/">
	<!ENTITY ns_ai "http://ns.adobe.com/AdobeIllustrator/10.0/">
	<!ENTITY ns_graphs "http://ns.adobe.com/Graphs/1.0/">
	<!ENTITY ns_vars "http://ns.adobe.com/Variables/1.0/">
	<!ENTITY ns_imrep "http://ns.adobe.com/ImageReplacement/1.0/">
	<!ENTITY ns_sfw "http://ns.adobe.com/SaveForWeb/1.0/">
	<!ENTITY ns_custom "http://ns.adobe.com/GenericCustomNamespace/1.0/">
	<!ENTITY ns_adobe_xpath "http://ns.adobe.com/XPath/1.0/">
]>
<svg version="1.1" xmlns:x="&ns_extend;" xmlns:i="&ns_ai;" xmlns:graph="&ns_graphs;"
	 xmlns="http://www.w3.org/2000/svg" xmlns:xlink="http://www.w3.org/1999/xlink" x="0px" y="0px" width="663.773px"
	 height="98.806px" viewBox="0 0 663.773 98.806" enable-background="new 0 0 663.773 98.806" xml:space="preserve">
<metadata>
	<sfw  xmlns="&ns_sfw;">
		<slices></slices>
		<sliceSourceBounds  width="663.773" height="98.806" bottomLeftOrigin="true" y="-269.751" x="-13.645"></sliceSourceBounds>
	</sfw>
</metadata>
<g id="Layer_1">
	<g>
		<path opacity="0.7" fill="#FFFFFF" d="M89.645,19.747c0-6.458-5.235-11.692-11.693-11.692H19.338
			c-6.458,0-11.693,5.235-11.693,11.692v58.615c0,6.458,5.235,11.692,11.693,11.692h58.613c6.458,0,11.693-5.234,11.693-11.692
			V19.747z M50.519,81.054c-17.355,0-31.426-14.07-31.426-31.425s14.071-31.426,31.426-31.426c17.354,0,31.426,14.071,31.426,31.426
			S67.873,81.054,50.519,81.054z"/>
		<path opacity="0.7" fill="#FFFFFF" d="M77.973,7.696C75.765,1.628,69.054-1.5,62.985,0.708L7.697,20.832
			c-6.068,2.209-9.197,8.92-6.988,14.986l20.124,55.289c2.209,6.07,8.919,9.199,14.987,6.99l55.289-20.125
			c6.068-2.207,9.197-8.918,6.988-14.986L77.973,7.696z M60.507,78.81c-16.309,5.936-34.344-2.475-40.279-18.783
			c-5.936-16.309,2.474-34.344,18.782-40.279c16.308-5.935,34.344,2.475,40.279,18.783C85.225,54.837,76.815,72.875,60.507,78.81z"
			/>
		<g>
			<path fill="#FFFFFF" d="M146.674,71.681c-15.266,0-25.274-12.17-25.274-25.924v-0.143c0-13.754,10.153-26.066,25.418-26.066
				c15.265,0,25.274,12.168,25.274,25.922c0.072,0.072,0.072,0.072,0,0.145C172.092,59.367,161.939,71.681,146.674,71.681z
				 M168.204,45.615c0-12.457-9.073-22.684-21.53-22.684s-21.386,10.082-21.386,22.539v0.145c0,12.457,9.073,22.682,21.53,22.682
				s21.386-10.082,21.386-22.539V45.615z"/>
			<path fill="#FFFFFF" d="M202.688,71.681c-7.345,0-12.097-4.178-15.121-8.785v19.441h-3.528V34.093h3.528v8.209
				c3.168-4.824,7.849-9.074,15.121-9.074c8.857,0,17.857,7.129,17.857,19.082v0.145C220.546,64.408,211.545,71.681,202.688,71.681z
				 M216.729,52.455c0-9.648-6.696-15.842-14.401-15.842c-7.633,0-14.978,6.408-14.978,15.77v0.145
				c0,9.432,7.345,15.77,14.978,15.77c7.993,0,14.401-5.832,14.401-15.697V52.455z"/>
			<path fill="#FFFFFF" d="M247.184,68.369c5.688,0,9.576-2.521,12.601-5.762l2.448,2.16c-3.744,4.033-8.137,6.914-15.193,6.914
				c-9.648,0-18.001-7.705-18.001-19.154v-0.145c0-10.656,7.488-19.154,17.425-19.154c10.297,0,16.85,8.354,16.85,19.227v0.145
				c0,0.504,0,0.719-0.072,1.295h-30.458C233.43,63.039,239.983,68.369,247.184,68.369z M259.497,50.726
				c-0.504-7.416-4.752-14.258-13.177-14.258c-7.272,0-12.89,6.121-13.537,14.258H259.497z"/>
			<path fill="#FFFFFF" d="M301.544,70.816V48.998c0-7.561-4.248-12.529-11.665-12.529c-7.2,0-12.745,5.473-12.745,13.105v21.242
				h-3.528V34.093h3.528v6.84c2.448-4.32,6.553-7.705,13.249-7.705c9.29,0,14.69,6.338,14.69,15.123v22.465H301.544z"/>
			<path fill="#FFFFFF" d="M335.312,70.816h-16.777V20.412h16.777c15.842,0,26.787,10.873,26.787,25.059v0.145
				C362.099,59.798,351.154,70.816,335.312,70.816z M358.21,45.615c0-11.953-8.857-21.746-22.898-21.746h-13.033v43.49h13.033
				c14.041,0,22.898-9.576,22.898-21.602V45.615z"/>
			<path fill="#FFFFFF" d="M399.248,70.816v-6.121c-2.52,3.529-7.057,6.986-14.041,6.986c-6.84,0-14.186-3.889-14.186-11.521v-0.145
				c0-7.633,6.553-11.953,16.059-11.953c5.111,0,8.641,0.648,12.168,1.584v-1.584c0-7.416-4.535-11.232-12.096-11.232
				c-4.465,0-8.137,1.225-11.521,2.951l-1.297-3.096c4.033-1.871,7.994-3.168,13.033-3.168c9.434,0,15.338,4.896,15.338,14.4v22.898
				H399.248z M399.32,52.886c-3.096-0.791-7.199-1.656-12.457-1.656c-7.775,0-12.096,3.457-12.096,8.568v0.145
				c0,5.328,5.039,8.426,10.656,8.426c7.488,0,13.896-4.609,13.896-11.307V52.886z"/>
			<path fill="#FFFFFF" d="M427.255,71.464c-5.689,0-10.297-3.096-10.297-10.08V37.333h-5.328v-3.24h5.328V22.357h3.527v11.736
				h12.891v3.24h-12.891v23.689c0,5.256,3.098,7.129,7.346,7.129c1.799,0,3.312-0.359,5.4-1.297v3.312
				C431.359,71.033,429.56,71.464,427.255,71.464z"/>
			<path fill="#FFFFFF" d="M469.015,70.816v-6.121c-2.52,3.529-7.057,6.986-14.041,6.986c-6.84,0-14.186-3.889-14.186-11.521v-0.145
				c0-7.633,6.553-11.953,16.059-11.953c5.111,0,8.641,0.648,12.168,1.584v-1.584c0-7.416-4.535-11.232-12.096-11.232
				c-4.465,0-8.137,1.225-11.521,2.951l-1.297-3.096c4.033-1.871,7.994-3.168,13.033-3.168c9.434,0,15.338,4.896,15.338,14.4v22.898
				H469.015z M469.087,52.886c-3.096-0.791-7.199-1.656-12.457-1.656c-7.775,0-12.096,3.457-12.096,8.568v0.145
				c0,5.328,5.039,8.426,10.656,8.426c7.488,0,13.896-4.609,13.896-11.307V52.886z"/>
			<path fill="#FFFFFF" d="M503.287,52.023h-13.609v18.793h-3.744V20.412h18.289c11.09,0,18.723,5.689,18.723,15.41v0.143
				C522.945,46.55,513.8,52.023,503.287,52.023z M519.201,36.037c0-7.992-6.193-12.168-15.266-12.168h-14.258v24.697h13.826
				c9.359,0,15.697-4.896,15.697-12.385V36.037z"/>
			<path fill="#FFFFFF" d="M561.175,70.816V48.998c0-7.561-4.248-12.529-11.666-12.529c-7.199,0-12.744,5.473-12.744,13.105v21.242
				h-3.529V18.251h3.529v22.682c2.447-4.32,6.553-7.705,13.248-7.705c9.289,0,14.689,6.338,14.689,15.123v22.465H561.175z"/>
			<path fill="#FFFFFF" d="M577.445,24.517v-4.826h4.393v4.826H577.445z M577.876,70.816V34.093h3.527v36.723H577.876z"/>
			<path fill="#FFFFFF" d="M595.802,70.816V18.251h3.529v52.564H595.802z"/>
			<path fill="#FFFFFF" d="M613.73,70.816V18.251h3.529v52.564H613.73z"/>
			<path fill="#FFFFFF" d="M647.861,72.113c-3.24,7.705-6.986,10.439-12.242,10.439c-2.809,0-4.824-0.504-7.271-1.584l1.223-3.096
				c1.945,0.936,3.529,1.369,6.266,1.369c3.816,0,6.336-2.232,9.072-8.641l-17.641-36.508h4.104l15.266,32.834l13.248-32.834h3.889
				L647.861,72.113z"/>
		</g>
	</g>
</g>
</svg>
